<svg width="32" height="32" viewBox="0 0 32 32" fill="none" xmlns="http://www.w3.org/2000/svg">
    <g clip-path="url(#clip0_1872_248)">
        <path
            d="M13.4419 23.0659C13.9769 23.0659 14.4106 22.6322 14.4106 22.0972C14.4106 21.5621 13.9769 21.1284 13.4419 21.1284C12.9069 21.1284 12.4731 21.5621 12.4731 22.0972C12.4731 22.6322 12.9069 23.0659 13.4419 23.0659Z"
            fill="#E4232A"></path>
        <path
            d="M21.9477 7.30434V9.99746C21.9477 10.6368 21.5311 11.189 20.9402 11.3731H20.9305C20.7948 11.4118 20.6495 11.4409 20.5042 11.4409H9.18922C8.39484 11.4409 7.46484 10.85 7.46484 10.0556V7.98246C7.46484 7.18809 8.39484 6.4809 9.18922 6.4809H11.0395C11.892 6.4809 12.512 5.96746 12.7348 5.13434C12.9092 4.49496 13.5583 3.02246 14.8467 3.02246C16.7648 3.02246 16.9392 4.47559 17.1814 5.14402C17.4623 5.92871 17.5883 6.4809 18.4214 6.4809H21.1339C21.5698 6.4809 21.9477 6.84902 21.9477 7.30434Z"
            fill="#D2E0FE"></path>
        <path
            d="M29.2327 13.3396V25.4781C29.2327 27.154 28.8259 28.52 28.1477 29.5275C27.4696 29.8568 26.9949 30.7868 26.1715 30.7868L5.74054 30.3993C4.79116 30.3993 3.9096 30.1475 3.16366 29.7115C1.78804 28.9075 1.20679 27.154 1.20679 25.5459V11.4215C1.20679 10.724 1.39085 10.0653 1.72022 9.49371C2.41772 9.07715 3.24116 8.83496 4.13241 8.83496H7.6296V9.82309C7.6296 10.5884 8.2496 11.2084 9.01491 11.2084H19.894C20.0393 11.2084 20.1749 11.189 20.3105 11.1503H20.3202C20.8821 10.9759 21.289 10.4431 21.289 9.83277V8.83496H24.3696C26.1133 8.83496 27.5665 8.83496 28.7677 10.569C29.2327 11.2568 29.2327 12.4678 29.2327 13.3396Z"
            fill="#D2E0FE"></path>
        <path
            d="M14.1879 17.3114C14.1879 18.2317 13.8876 19.0939 13.3741 19.7914C12.7251 20.2176 11.9404 20.4695 11.1072 20.4695C8.79193 20.4695 6.92224 18.5901 6.92224 16.2845C6.92224 15.3545 7.23224 14.4923 7.74568 13.7948C8.39474 13.3686 9.16974 13.136 10.0126 13.136C12.3182 13.1264 14.1879 14.9961 14.1879 17.3114Z"
            fill="#D2E0FE"></path>
        <path
            d="M16.2999 26.8924H4.77173C4.77173 25.5555 5.18829 24.3155 5.89548 23.2886C7.00954 22.3102 8.47235 21.7192 10.0708 21.7192C13.1708 21.7192 15.7574 23.9474 16.2999 26.8924Z"
            fill="#D2E0FE"></path>
        <path fill-rule="evenodd" clip-rule="evenodd"
            d="M15.7379 26.8925H6.48635C5.47885 26.8925 4.76198 25.9141 5.07198 24.9647C5.26573 24.3641 5.54666 23.8022 5.89541 23.2888C7.03854 21.6419 8.94697 20.5569 11.1073 20.5569C13.936 20.5569 16.3385 22.4072 17.1523 24.9744C17.4526 25.9238 16.7357 26.8925 15.7379 26.8925Z"
            stroke="#1D1D1D" stroke-width="1.4" stroke-linecap="round" stroke-linejoin="round"></path>
        <path
            d="M11.1072 20.4601C13.4186 20.4601 15.2922 18.5864 15.2922 16.2751C15.2922 13.9638 13.4186 12.0901 11.1072 12.0901C8.79593 12.0901 6.92224 13.9638 6.92224 16.2751C6.92224 18.5864 8.79593 20.4601 11.1072 20.4601Z"
            stroke="#1D1D1D" stroke-width="1.35625" stroke-linecap="round" stroke-linejoin="round"></path>
        <path
            d="M9.07291 7.30444H5.56604C3.86104 7.30444 2.37885 8.22476 1.62322 9.56163C1.29385 10.1623 1.1001 10.8404 1.1001 11.5573V26.1369C1.1001 27.8032 2.02041 29.266 3.39604 30.0894C4.14197 30.5351 5.03322 30.8063 5.9826 30.8063H25.8517C26.6751 30.8063 27.4404 30.6126 28.1185 30.2735C29.6782 29.4888 30.7342 27.9291 30.7342 26.1466V11.9641C30.7342 11.0632 30.4629 10.2107 29.9882 9.49382C29.126 8.17632 27.5954 7.30444 25.8517 7.30444H22.7613"
            stroke="#1D1D1D" stroke-width="1.4" stroke-linecap="round" stroke-linejoin="round"></path>
        <path d="M19.7679 22.0972H26.1714" stroke="#1D1D1D" stroke-width="1.4"
            stroke-linecap="round" stroke-linejoin="round"></path>
        <path d="M19.7679 16.7979H26.1714" stroke="#1D1D1D" stroke-width="1.4"
            stroke-linecap="round" stroke-linejoin="round"></path>
        <path fill-rule="evenodd" clip-rule="evenodd"
            d="M22.7128 6.30642V8.29235C22.7128 8.91235 22.306 9.43548 21.7441 9.60985H21.7344C21.6085 9.6486 21.4632 9.66798 21.3178 9.66798H10.4388C9.67347 9.66798 9.05347 9.04798 9.05347 8.28267V6.3161C9.05347 5.55079 9.67347 4.93079 10.4388 4.93079H11.7369C12.7057 4.93079 13.4322 4.11704 13.4225 3.14829C13.4225 3.1386 13.4225 3.1386 13.4225 3.12892C13.4225 1.77267 14.5172 0.677979 15.8735 0.677979C17.22 0.677979 18.3147 1.77267 18.3147 3.12892C18.3147 3.1386 18.3147 3.1386 18.3147 3.14829C18.305 4.11704 19.0316 4.93079 20.0003 4.93079H21.3082C22.0928 4.9211 22.7128 5.5411 22.7128 6.30642Z"
            stroke="#1D1D1D" stroke-width="1.4" stroke-linecap="round" stroke-linejoin="round"></path>
        <path fill-rule="evenodd" clip-rule="evenodd"
            d="M15.2923 16.2751C15.2923 17.7476 14.527 19.0457 13.3839 19.782C12.7348 20.2082 11.9501 20.4601 11.117 20.4601C8.80169 20.4601 6.93201 18.5807 6.93201 16.2751C6.93201 15.3451 7.24201 14.4829 7.75544 13.7854C8.52076 12.7585 9.74138 12.0901 11.117 12.0901C13.4226 12.0901 15.2923 13.9695 15.2923 16.2751Z"
            stroke="#1D1D1D" stroke-width="1.4" stroke-linecap="round" stroke-linejoin="round"></path>
    </g>
    <defs>
        <rect width="32" height="32" fill="white"></rect>
    </defs>
</svg>