<svg xmlns="http://www.w3.org/2000/svg" width="14" height="14" viewBox="0 0 14 14" fill="none">
   <path
      d="M1.87068 1.13937L7.00018 6.26894L12.1297 1.13937C12.3249 0.944104 12.6415 0.944104 12.8368 1.13937L12.8608 1.16333C13.056 1.3586 13.056 1.67518 12.8608 1.87044L7.73118 6.99994L12.8608 12.1294C13.056 12.3247 13.056 12.6413 12.8608 12.8365L12.8368 12.8605C12.6415 13.0558 12.3249 13.0558 12.1297 12.8605L7.00018 7.73094L1.87068 12.8605C1.67542 13.0558 1.35884 13.0558 1.16358 12.8605L1.13961 12.8365C0.944349 12.6413 0.944349 12.3247 1.13961 12.1294L6.26918 6.99994L1.13961 1.87044C0.944349 1.67518 0.944349 1.3586 1.13961 1.16333L1.16358 1.13937C1.35884 0.944104 1.67542 0.944104 1.87068 1.13937Z"
      fill="#1D1D1D" stroke="#1D1D1D"></path>
</svg>