<svg width="32" height="32" viewBox="0 0 32 32" fill="none" xmlns="http://www.w3.org/2000/svg">
    <path
        d="M27.06 30.2599C28.1977 30.2599 29.12 29.3376 29.12 28.1999C29.12 27.0622 28.1977 26.1399 27.06 26.1399C25.9223 26.1399 25 27.0622 25 28.1999C25 29.3376 25.9223 30.2599 27.06 30.2599Z"
        fill="#D2E0FE"></path>
    <path
        d="M25.78 24.0699L25.66 24.1599C24.8963 24.6729 24.0266 25.0067 23.1158 25.1366C22.205 25.2665 21.2766 25.189 20.4 24.9099C20.1517 24.8318 19.8862 24.8261 19.6347 24.8934C19.3832 24.9606 19.1561 25.0982 18.98 25.2899C18.3601 25.9409 17.605 26.4481 16.7679 26.7757C15.9308 27.1034 15.0321 27.2436 14.1349 27.1864C13.2378 27.1292 12.3642 26.876 11.5755 26.4447C10.7868 26.0133 10.1022 25.4144 9.57 24.6899C8.9935 23.8931 8.61319 22.9714 8.46 21.9999C8.39901 21.6888 8.23423 21.4076 7.99262 21.2023C7.75101 20.997 7.44688 20.8799 7.13 20.8699C6.04019 20.7795 4.99441 20.3993 4.10109 19.7685C3.20776 19.1378 2.49943 18.2796 2.04953 17.2829C1.59963 16.2861 1.42455 15.1872 1.54244 14.1001C1.66033 13.0129 2.0669 11.977 2.72 11.0999C3.2101 10.7385 3.7532 10.4552 4.33 10.2599C4.61801 10.1644 4.87811 9.99954 5.08738 9.77981C5.29664 9.56008 5.44865 9.29225 5.53 8.99992C5.57842 8.81726 5.60197 8.62889 5.6 8.43992C5.5816 7.44992 5.80409 6.47028 6.2483 5.58534C6.69251 4.7004 7.34514 3.93668 8.15 3.35992C8.39306 3.17906 8.65059 3.01852 8.92 2.87992C9.89911 2.37969 10.9944 2.15108 12.0919 2.21792C13.1893 2.28475 14.2488 2.64457 15.16 3.25992C15.8264 3.70234 16.3976 4.27354 16.84 4.93992C17.0296 5.22518 17.3063 5.44157 17.6288 5.55689C17.9514 5.67221 18.3025 5.68029 18.63 5.57992C19.8318 5.17872 21.1283 5.15974 22.3413 5.52559C23.5543 5.89144 24.6241 6.62415 25.4036 7.62292C26.1831 8.6217 26.634 9.83747 26.6942 11.103C26.7545 12.3685 26.4211 13.6216 25.74 14.6899C25.562 14.9979 25.4775 15.3511 25.4971 15.7063C25.5166 16.0615 25.6393 16.4033 25.85 16.6899C26.0362 16.9473 26.2034 17.2181 26.35 17.4999C26.8781 18.539 27.1046 19.7052 27.0038 20.8664C26.9031 22.0276 26.4791 23.1373 25.78 24.0699Z"
        fill="#E0F1FA"></path>
    <path
        d="M25.78 24.0699L25.66 24.1599C24.8963 24.6729 24.0266 25.0067 23.1158 25.1366C22.205 25.2665 21.2766 25.189 20.4 24.9099C20.1517 24.8318 19.8862 24.826 19.6347 24.8933C19.3832 24.9606 19.1561 25.0982 18.98 25.2899C18.3601 25.9409 17.605 26.4481 16.7679 26.7757C15.9308 27.1034 15.0321 27.2435 14.1349 27.1863C13.2378 27.1291 12.3642 26.876 11.5755 26.4447C10.7868 26.0133 10.1022 25.4144 9.57 24.6899C8.9935 23.8931 8.61319 22.9714 8.46 21.9999C8.39901 21.6888 8.23423 21.4076 7.99262 21.2023C7.75101 20.997 7.44688 20.8798 7.13 20.8699C6.04019 20.7795 4.99441 20.3992 4.10109 19.7685C3.20776 19.1378 2.49943 18.2796 2.04953 17.2828C1.59963 16.2861 1.42455 15.1872 1.54244 14.1C1.66033 13.0129 2.0669 11.977 2.72 11.0999C2.8727 10.8887 3.03976 10.6882 3.22 10.4999C3.86466 9.82924 4.65507 9.31598 5.53 8.99991C5.74562 8.91958 5.96605 8.85278 6.19 8.79991C6.44127 8.75342 6.66521 8.61249 6.81585 8.40607C6.96648 8.19965 7.03237 7.94339 7 7.68991C6.82428 6.15325 7.23498 4.60689 8.15 3.35991C8.71125 2.61356 9.43214 2.00201 10.26 1.56991C11.6249 0.873754 13.1999 0.710323 14.6787 1.11143C16.1574 1.51253 17.434 2.44948 18.26 3.73991C18.4202 4.00737 18.6686 4.21061 18.9624 4.31465C19.2563 4.41869 19.5772 4.41701 19.87 4.30991C21.1142 3.8517 22.4735 3.80927 23.7439 4.189C25.0143 4.56872 26.1273 5.35013 26.916 6.41599C27.7047 7.48185 28.1266 8.77471 28.1183 10.1006C28.11 11.4265 27.672 12.714 26.87 13.7699C26.7315 13.9445 26.6553 14.1604 26.6535 14.3832C26.6517 14.606 26.7244 14.8231 26.86 14.9999C27.1828 15.3638 27.4583 15.7669 27.68 16.1999C28.3569 17.5221 28.5374 19.0432 28.1888 20.4871C27.8402 21.931 26.9856 23.2022 25.78 24.0699Z"
        stroke="#1D1D1B" stroke-width="1.4" stroke-linecap="round" stroke-linejoin="round"></path>
    <path
        d="M27.06 30.2599C28.1977 30.2599 29.12 29.3376 29.12 28.1999C29.12 27.0622 28.1977 26.1399 27.06 26.1399C25.9223 26.1399 25 27.0622 25 28.1999C25 29.3376 25.9223 30.2599 27.06 30.2599Z"
        stroke="#1D1D1B" stroke-width="1.4" stroke-linecap="round" stroke-linejoin="round"></path>
    <path
        d="M13.33 11.0001C13.3503 10.3003 13.6388 9.63501 14.1357 9.14182C14.6326 8.64862 15.3 8.36519 16 8.3501H16.66C17.2416 8.37748 17.7993 8.58942 18.2524 8.9552C18.7054 9.32097 19.0301 9.82155 19.1795 10.3843C19.3288 10.9471 19.295 11.5428 19.0829 12.0851C18.8708 12.6274 18.4915 13.088 18 13.4001C17.09 13.9701 15.33 14.2101 15.27 16.0701V17.2401"
        stroke="#1D1D1B" stroke-width="1.4" stroke-linecap="round" stroke-linejoin="round"></path>
    <path
        d="M15.26 20.35C15.6355 20.35 15.94 20.0455 15.94 19.67C15.94 19.2944 15.6355 18.99 15.26 18.99C14.8844 18.99 14.58 19.2944 14.58 19.67C14.58 20.0455 14.8844 20.35 15.26 20.35Z"
        fill="#1D1D1B"></path>
</svg>