<svg width="16" height="16" xmlns="http://www.w3.org/2000/svg">
    <path
        d="M10.06 4.298l.815 1.769c.165.358.5.609.891.666l1.947.282a1.167 1.167 0 01.661 1.976l-1.49 1.505a1.167 1.167 0 00-.32 1.017l.352 2.075a1.167 1.167 0 01-1.722 1.213l-1.622-.912c-.355-.2-.789-.2-1.144 0l-1.622.912a1.167 1.167 0 01-1.722-1.213l.353-2.075a1.167 1.167 0 00-.321-1.017l-1.49-1.505a1.167 1.167 0 01.661-1.976l1.947-.282c.39-.057.726-.308.891-.666l.815-1.769a1.167 1.167 0 012.12 0z"
        fill="#FFD662" fill-rule="nonzero"></path>
</svg>