<svg width="32" height="32" viewBox="0 0 32 32" fill="none" xmlns="http://www.w3.org/2000/svg">
    <g clip-path="url(#clip0_463_3176)">
        <path
            d="M22.7895 18.3603H8.68945C8.68945 16.7203 9.19945 15.2003 10.0695 13.9503C11.4395 12.7603 13.2195 12.0303 15.1695 12.0303C18.9695 12.0303 22.1295 14.7503 22.7895 18.3603Z"
            fill="#FCE7D0"></path>
        <path
            d="M20.0602 6.96023C20.0602 8.11023 19.6902 9.18023 19.0402 10.0502C18.2302 10.5802 17.2602 10.8902 16.2102 10.8902C13.3202 10.8902 10.9902 8.55023 10.9902 5.67023C10.9902 4.51023 11.3702 3.44023 12.0102 2.57023C12.8202 2.04023 13.7902 1.74023 14.8302 1.74023C17.7302 1.74023 20.0602 4.07023 20.0602 6.96023V6.96023Z"
            fill="#FCE7D0"></path>
        <path
            d="M10.2812 13.5801C11.6912 12.0301 13.7413 11.0601 16.0013 11.0601C18.2613 11.0601 20.3012 12.0301 21.7212 13.5801"
            stroke="#1D1D1B" stroke-width="1.4" stroke-miterlimit="10" stroke-linecap="round"
            stroke-linejoin="round"></path>
        <path d="M18.5616 18.8101H13.4316" stroke="#1D1D1B" stroke-width="1.4"
            stroke-miterlimit="10" stroke-linecap="round" stroke-linejoin="round"></path>
        <path
            d="M16.0006 10.9402C18.8228 10.9402 21.1106 8.65239 21.1106 5.83021C21.1106 3.00804 18.8228 0.720215 16.0006 0.720215C13.1784 0.720215 10.8906 3.00804 10.8906 5.83021C10.8906 8.65239 13.1784 10.9402 16.0006 10.9402Z"
            stroke="#1D1D1B" stroke-width="1.4" stroke-miterlimit="10" stroke-linecap="round"
            stroke-linejoin="round"></path>
        <path
            d="M30.2602 30.8403H16.1602C16.1602 29.2003 16.6702 27.6803 17.5402 26.4303C18.9102 25.2403 20.6902 24.5103 22.6402 24.5103C26.4402 24.5203 29.5902 27.2403 30.2602 30.8403V30.8403Z"
            fill="#FCE7D0"></path>
        <path
            d="M27.7399 19.45C27.7399 20.6 27.3699 21.67 26.7199 22.54C25.9099 23.07 24.9399 23.38 23.8899 23.38C20.9999 23.38 18.6699 21.04 18.6699 18.16C18.6699 17 19.0499 15.93 19.6899 15.06C20.4999 14.53 21.4699 14.23 22.5099 14.23C25.4099 14.24 27.7399 16.57 27.7399 19.45V19.45Z"
            fill="#FCE7D0"></path>
        <path
            d="M30.1609 31.2903H17.1509C16.4309 31.2903 15.9009 30.6403 16.0209 29.9403C16.2209 28.8203 16.6609 27.7803 17.2809 26.8903C18.6709 24.8703 21.0109 23.5503 23.6609 23.5503C27.4909 23.5503 30.6809 26.3303 31.3009 29.9903C31.4109 30.6703 30.8509 31.2903 30.1609 31.2903Z"
            stroke="#1D1D1B" stroke-width="1.4" stroke-miterlimit="10" stroke-linecap="round"
            stroke-linejoin="round"></path>
        <path
            d="M23.651 23.4202C26.4732 23.4202 28.761 21.1324 28.761 18.3102C28.761 15.488 26.4732 13.2002 23.651 13.2002C20.8288 13.2002 18.541 15.488 18.541 18.3102C18.541 21.1324 20.8288 23.4202 23.651 23.4202Z"
            stroke="#1D1D1B" stroke-width="1.4" stroke-miterlimit="10" stroke-linecap="round"
            stroke-linejoin="round"></path>
        <path
            d="M14.9809 30.8403H0.880859C0.880859 29.2003 1.39086 27.6803 2.26086 26.4303C3.63086 25.2403 5.41086 24.5103 7.36086 24.5103C11.1609 24.5203 14.3109 27.2403 14.9809 30.8403V30.8403Z"
            fill="#FCE7D0"></path>
        <path
            d="M12.4606 19.45C12.4606 20.6 12.0906 21.67 11.4406 22.54C10.6306 23.07 9.66062 23.38 8.61062 23.38C5.72062 23.38 3.39062 21.04 3.39062 18.16C3.39062 17 3.77062 15.93 4.41062 15.06C5.22062 14.53 6.19062 14.23 7.23062 14.23C10.1306 14.24 12.4606 16.57 12.4606 19.45V19.45Z"
            fill="#FCE7D0"></path>
        <path
            d="M14.8504 31.2903H1.84036C1.12036 31.2903 0.590356 30.6403 0.710356 29.9403C0.910356 28.8203 1.35036 27.7803 1.97036 26.8903C3.36036 24.8703 5.70036 23.5503 8.35036 23.5503C12.1804 23.5503 15.3704 26.3303 15.9904 29.9903C16.1004 30.6703 15.5504 31.2903 14.8504 31.2903V31.2903Z"
            stroke="#1D1D1B" stroke-width="1.4" stroke-miterlimit="10" stroke-linecap="round"
            stroke-linejoin="round"></path>
        <path
            d="M13.4305 18.8104C13.1805 21.4004 11.0005 23.4304 8.34047 23.4304C5.52047 23.4304 3.23047 21.1404 3.23047 18.3204C3.23047 15.5004 5.52047 13.2104 8.34047 13.2104C11.1605 13.2104 13.4505 15.5004 13.4505 18.3204C13.4605 18.4804 13.4505 18.6504 13.4305 18.8104Z"
            stroke="#1D1D1B" stroke-width="1.4" stroke-miterlimit="10" stroke-linecap="round"
            stroke-linejoin="round"></path>
    </g>
    <defs>
        <rect width="32" height="32" fill="white"></rect>
    </defs>
</svg>