<svg width="32" height="32" viewBox="0 0 32 32" fill="none" xmlns="http://www.w3.org/2000/svg">
    <path
        d="M30 17.33V18.07C30.0009 19.4876 29.6578 20.8843 29 22.14C28.2158 22.978 27.2681 23.6463 26.2155 24.1038C25.1629 24.5613 24.0277 24.7983 22.88 24.8L23.62 26.36C22.97 26.53 24.26 28.5 23.56 28.5H22.43L16.77 24.8H9.17003C6.92272 24.7842 4.77361 23.8769 3.19483 22.2775C1.61604 20.6781 0.73672 18.5174 0.750027 16.27V15.53C0.744277 14.1087 1.08767 12.7077 1.75003 11.45C2.53433 10.6094 3.4834 9.93942 4.53806 9.48177C5.59272 9.02412 6.73035 8.78865 7.88003 8.79005H21.54C22.6566 8.79397 23.7615 9.01813 24.7914 9.44968C25.8212 9.88123 26.7558 10.5117 27.5417 11.305C28.3275 12.0983 28.9492 13.0388 29.371 14.0726C29.7929 15.1065 30.0066 16.2134 30 17.33Z"
        fill="#FCE7D0"></path>
    <path
        d="M22.83 7H9.15995C7.63886 7.00616 6.14799 7.42523 4.84646 8.21248C3.54493 8.99974 2.4816 10.1256 1.76995 11.47V11.47C1.10452 12.7228 0.760885 14.1214 0.76995 15.54V16.28C0.759256 18.5204 1.63564 20.6741 3.20767 22.2705C4.7797 23.8669 6.9196 24.7762 9.15995 24.8H16.76L22.43 28.51L22.65 28.65C22.8289 28.7301 23.0274 28.7558 23.2208 28.724C23.4143 28.6922 23.5941 28.6042 23.738 28.471C23.8818 28.3379 23.9833 28.1653 24.0299 27.9749C24.0765 27.7845 24.0661 27.5846 24 27.4L23.53 26.4L22.79 24.83C23.9554 24.8393 25.1099 24.6047 26.1793 24.1415C27.2488 23.6782 28.2095 22.9965 29 22.14V22.14C30.4803 20.5439 31.302 18.4469 31.2999 16.27V15.53C31.3052 14.4134 31.0902 13.3067 30.6671 12.2734C30.2441 11.24 29.6213 10.3002 28.8345 9.50787C28.0478 8.71552 27.1124 8.08615 26.0821 7.65582C25.0517 7.22548 23.9466 7.00262 22.83 7V7Z"
        stroke="#1D1D1B" stroke-width="1.4" stroke-linecap="round" stroke-linejoin="round"></path>
    <path
        d="M13.8 13.5699C13.8151 12.8699 14.0986 12.2025 14.5918 11.7056C15.085 11.2087 15.7502 10.9203 16.45 10.8999H17.12C17.691 10.9338 18.237 11.1454 18.6815 11.5052C19.1261 11.8649 19.447 12.3548 19.5991 12.9061C19.7513 13.4574 19.7271 14.0425 19.53 14.5794C19.3329 15.1163 18.9728 15.578 18.5 15.8999C17.59 16.4799 15.82 16.7099 15.77 18.5699V19.7399"
        stroke="#1D1D1B" stroke-width="1.4" stroke-linecap="round" stroke-linejoin="round"></path>
    <path
        d="M15.72 22.9C16.0956 22.9 16.4 22.5956 16.4 22.22C16.4 21.8445 16.0956 21.54 15.72 21.54C15.3445 21.54 15.04 21.8445 15.04 22.22C15.04 22.5956 15.3445 22.9 15.72 22.9Z"
        fill="#1D1D1B"></path>
</svg>