<svg width="32" height="32" viewBox="0 0 32 32" fill="none" xmlns="http://www.w3.org/2000/svg">
    <path
        d="M23.62 20.25C24.03 19.84 24.72 19.63 25.31 19.35C25.72 19.16 26.1 18.93 26.3 18.58C26.79 17.73 24.74 17.64 25.01 16.68C25.26 15.74 26.48 14.9 26.48 13.89C26.48 12.87 25.25 12.04 25.01 11.1C24.75 10.13 25.38 8.79 24.89 7.94C24.39 7.08 22.91 6.96 22.22 6.27C21.52 5.57 21.4 4.09 20.54 3.59C19.69 3.1 18.35 3.73 17.38 3.48C16.45 3.23 15.6 2 14.59 2C13.57 2 12.74 3.23 11.8 3.48C10.83 3.74 10.9 1.85 10.05 2.34C9.55999 2.61 9.30999 3.22 9.05999 3.81C8.86999 4.26 8.66999 4.71 8.37999 5C8.23999 5.14 8.06999 5.26 7.88999 5.36C7.13999 5.77 6.09999 5.99 5.69999 6.68C5.56999 6.92 5.51999 7.18 5.50999 7.47C5.48999 8.24 5.76999 9.14 5.57999 9.84C5.32999 10.78 4.10999 11.62 4.10999 12.63C4.10999 13.65 5.33999 14.48 5.57999 15.42C5.83999 16.38 5.20999 17.73 5.69999 18.57C6.19999 19.44 7.67999 19.55 8.37999 20.25C9.06999 20.94 9.18999 22.43 10.05 22.93C10.25 23.04 10.47 23.09 10.72 23.11L7.74999 29.71L11.3 28L12.49 29.84L13.43 31.28L14.74 24C15.14 24.29 15.56 24.53 16 24.53C16.24 24.53 16.46 24.46 16.68 24.36C16.71 24.35 16.73 24.33 16.75 24.33C17.45 23.96 18.09 23.24 18.79 23.05C18.95 23.01 19.12 22.99 19.3 22.99L20.62 30.33L20.79 31.28L22.18 29.14L22.93 28L24.27 28.64L26.48 29.71L22.88 21.72L22.8 21.75C22.84 21.66 22.88 21.56 22.92 21.47C23.12 21.01 23.32 20.55 23.62 20.25Z"
        fill="#D5F3E8"></path>
    <path
        d="M26.3 18.57C26.1 18.92 25.72 19.15 25.31 19.34C24.72 19.62 24.03 19.83 23.62 20.24C23.32 20.54 23.12 21 22.93 21.46C22.68 22.05 22.43 22.64 21.95 22.92C21.89 22.95 21.83 22.99 21.76 23.01C20.91 23.32 19.69 22.79 18.79 23.04C18.1 23.22 17.45 23.95 16.75 24.32C16.73 24.33 16.7 24.34 16.68 24.35C16.46 24.45 16.24 24.52 16 24.52C14.98 24.52 14.14 23.29 13.21 23.04C12.24 22.78 10.9 23.41 10.05 22.93C9.18999 22.43 9.06999 20.94 8.37999 20.25C7.67999 19.55 6.19999 19.44 5.69999 18.57C5.20999 17.72 5.83999 16.38 5.57999 15.42C5.32999 14.48 4.10999 13.64 4.10999 12.63C4.10999 11.61 5.33999 10.78 5.57999 9.83998C5.76999 9.13998 5.48999 8.23998 5.50999 7.46998C5.51999 7.17998 5.56999 6.90998 5.69999 6.66998C6.09999 5.97998 7.13999 5.76998 7.88999 5.34998C8.06999 5.24998 8.23999 5.13998 8.37999 4.99998C8.66999 4.69998 8.86999 4.24998 9.05999 3.80998C9.30999 3.20998 9.55999 2.59998 10.05 2.31998C10.9 1.82998 12.24 2.45998 13.21 2.20998C14.15 1.95998 14.99 0.72998 16 0.72998C17.01 0.72998 17.85 1.95998 18.79 2.20998C19.76 2.46998 21.1 1.82998 21.95 2.31998C22.81 2.81998 22.93 4.29998 23.63 4.99998C24.32 5.68998 25.81 5.80998 26.3 6.66998C26.79 7.51998 26.16 8.85998 26.42 9.82998C26.67 10.77 27.89 11.61 27.89 12.62C27.89 13.64 26.66 14.48 26.42 15.41C26.16 16.38 26.79 17.72 26.3 18.57V18.57Z"
        stroke="#1D1D1B" stroke-width="1.4" stroke-miterlimit="10" stroke-linecap="round"
        stroke-linejoin="round"></path>
    <path
        d="M16 19.6601C19.888 19.6601 23.04 16.5082 23.04 12.6201C23.04 8.73199 19.888 5.58008 16 5.58008C12.1119 5.58008 8.95996 8.73199 8.95996 12.6201C8.95996 16.5082 12.1119 19.6601 16 19.6601Z"
        stroke="#1D1D1B" stroke-width="1.4" stroke-miterlimit="10" stroke-linecap="round"
        stroke-linejoin="round"></path>
    <path
        d="M22.8799 21.72L26.4799 29.71L24.2699 28.64L22.9299 27.99L22.1899 29.13L20.7999 31.27L20.6299 30.32L19.2999 22.97"
        stroke="#1D1D1B" stroke-width="1.4" stroke-miterlimit="10" stroke-linecap="round"
        stroke-linejoin="round"></path>
    <path d="M14.74 23.9899L13.43 31.2699L12.49 29.8299L11.3 27.9899L7.73999 29.7099L10.72 23.1099"
        stroke="#1D1D1B" stroke-width="1.4" stroke-miterlimit="10" stroke-linecap="round"
        stroke-linejoin="round"></path>
    <path
        d="M16 9.85986C14.99 9.85986 14.17 10.4799 14.17 11.2399C14.17 12.0699 15.05 12.3999 15.72 12.5799C16.46 12.7799 17.57 12.8699 17.8 13.7599C17.81 13.7999 17.82 13.8399 17.82 13.8699C17.96 14.8499 16.82 15.3899 16 15.3899"
        stroke="#1D1D1B" stroke-width="1.4" stroke-miterlimit="10" stroke-linecap="round"
        stroke-linejoin="round"></path>
    <path d="M17.58 10.0399L16 9.85988V8.62988" stroke="#1D1D1B" stroke-width="1.4"
        stroke-miterlimit="10" stroke-linecap="round" stroke-linejoin="round"></path>
    <path d="M16 16.6199V15.3899" stroke="#1D1D1B" stroke-width="1.4" stroke-miterlimit="10"
        stroke-linecap="round" stroke-linejoin="round"></path>
    <path d="M14.23 15.1899L16 15.3899" stroke="#1D1D1B" stroke-width="1.4" stroke-miterlimit="10"
        stroke-linecap="round" stroke-linejoin="round"></path>
</svg>